<svg width="176" height="170" viewBox="0 0 176 170" fill="none" xmlns="http://www.w3.org/2000/svg">
<path d="M110.566 67.8821C112.534 70.1231 115.475 71.4215 118.579 71.4201H169.145V9.56564H123.59V52.0906H118.888C116.476 52.0785 114.13 52.8389 112.247 54.2466C110.362 55.6529 109.052 57.6214 108.534 59.8218C108.394 60.5296 108.325 61.2483 108.328 61.9669L94.4543 68.5196C92.2241 64.5757 87.9342 62.0194 83.1634 61.7943C78.3912 61.5678 73.8457 63.7049 71.2007 67.4182L58.7758 58.9319V58.9332C68.355 51.4137 73.0263 39.7683 71.0935 28.2251C69.1594 16.6823 60.9031 6.92295 49.322 2.49372C37.7409 -1.93688 24.5217 -0.39304 14.467 6.56293C4.41267 13.5202 -1.01404 24.8773 0.157386 36.5092C1.33025 48.1397 8.93085 58.3533 20.1984 63.438C31.4678 68.5213 44.7635 67.7364 55.2556 61.3683L69.3574 71.0331C68.5154 73.7122 68.6612 76.5762 69.7676 79.1688C70.8755 81.7616 72.8818 83.9325 75.4658 85.3373V108.783L72.5466 105.497H72.5452C71.7782 104.339 70.5981 103.47 69.2115 103.042C67.8263 102.613 66.3227 102.655 64.9666 103.16C62.5631 104.048 60.6839 105.857 59.8087 108.128C58.9334 110.4 59.1457 112.912 60.3908 115.027L75.1338 137.295C77.7019 141.838 77.66 146.96 77.6182 152.43L77.6196 170H81.7606V152.449C81.7606 146.766 81.7606 140.85 78.7375 135.38L64.077 113.114C63.4256 111.972 63.3259 110.625 63.8054 109.411C64.2835 108.196 65.2931 107.23 66.583 106.754C67.5406 106.396 68.6355 106.749 69.1497 107.585L79.6895 119.473V79.1501C79.6217 78.391 79.8961 77.6386 80.4493 77.0764C81.0025 76.5155 81.7825 76.1959 82.5986 76.1959C83.4161 76.1959 84.1961 76.5155 84.7493 77.0764C85.3025 77.6386 85.5769 78.391 85.509 79.1501V110.078C85.509 111.146 86.4363 112.01 87.5789 112.01C88.7229 112.01 89.6502 111.146 89.6502 110.078V96.8563C91.1004 97.099 92.4119 97.8163 93.3493 98.8788C94.2868 99.9399 94.7879 101.279 94.7648 102.655V110.078C94.7648 111.146 95.6921 112.01 96.8347 112.01C97.9787 112.01 98.906 111.146 98.906 110.078V102.558C98.9031 102.027 98.8482 101.496 98.7399 100.974C99.9459 101.37 100.99 102.107 101.731 103.079C102.472 104.05 102.874 105.212 102.882 106.405V112.01C102.882 113.078 103.808 113.943 104.952 113.943C106.096 113.943 107.024 113.078 107.024 112.01V106.405C107.015 105.84 106.953 105.278 106.837 104.724C109.322 105.068 111.162 107.056 111.165 109.401V130.316C111.169 133.755 110.081 137.119 108.037 139.981L106.712 141.915L106.713 141.913C105.596 143.464 104.984 145.284 104.952 147.152V169.999H109.093V147.152C109.093 146.011 109.453 144.895 110.129 143.943L111.455 142.009V142.01C113.948 138.553 115.288 134.484 115.306 130.316V109.401C115.306 107.114 114.334 104.922 112.6 103.305C110.868 101.689 108.52 100.78 106.07 100.78H105.056C103.135 98.2884 100.061 96.7958 96.7727 96.7595C95.0697 94.6022 92.4815 93.2025 89.6302 92.894V85.1628C93.6111 82.8639 96.0316 78.8041 96.0276 74.4342C96.0261 73.6886 95.9496 72.9444 95.8008 72.2122L109.177 65.8145V65.8131C109.539 66.5574 110.005 67.2532 110.564 67.8815L110.566 67.8821ZM127.732 13.4315H165.005V67.5542H152.436C150.216 67.5542 148.165 66.4486 147.055 64.654C145.946 62.8607 145.946 60.6493 147.055 58.8548C148.165 57.0615 150.216 55.9559 152.436 55.9559V52.0904H127.732L127.732 13.4315ZM112.492 60.5369C112.836 59.2048 113.66 58.025 114.824 57.1904C115.988 56.3571 117.424 55.9216 118.89 55.9553H144.152C142.809 57.6286 142.082 59.6632 142.082 61.7546C142.082 63.8458 142.809 65.8804 144.152 67.5537H118.579C116.717 67.5524 114.955 66.7717 113.775 65.4274C112.572 64.0643 112.1 62.2643 112.492 60.5371L112.492 60.5369ZM67.2293 31.5426H37.6579V3.88172C45.335 4.35364 52.5654 7.41281 58.0051 12.4906C63.4447 17.5684 66.7219 24.3182 67.2274 31.4843L67.2293 31.5426ZM3.84751 33.4761L3.84607 33.4748C3.84318 25.9483 6.90818 18.7012 12.4187 13.2067C17.929 7.71093 25.4719 4.37659 33.5184 3.88161V35.3501H67.2293C66.5345 45.6983 60.0924 54.9547 50.2444 59.7519C40.3964 64.5491 28.5783 64.1891 19.0871 58.8027C9.59594 53.4149 3.81389 43.7864 3.84569 33.4165L3.84751 33.4761ZM89.6556 80.1362V79.1506C89.7611 77.3438 89.0649 75.575 87.7317 74.2616C86.3971 72.947 84.5439 72.2028 82.6041 72.2028C80.6657 72.2028 78.8125 72.947 77.4781 74.2616C76.1449 75.5749 75.4487 77.3439 75.5541 79.1506V80.4261C73.909 78.7528 73.0206 76.5509 73.0755 74.2804C73.1304 72.0098 74.1242 69.847 75.8488 68.244C77.5749 66.6422 79.8959 65.7253 82.3282 65.6849C84.762 65.6458 87.1163 66.4858 88.9001 68.0296C90.6854 69.5748 91.76 71.7026 91.9001 73.9704C92.0417 76.2382 91.2371 78.4683 89.6555 80.1941L89.6556 80.1362Z" fill="#A3143D"/>
<path d="M133.941 18.625H158.79V22.4913H133.941V18.625Z" fill="#A3143D"/>
<path d="M133.941 27.9297H158.79V31.796H133.941V27.9297Z" fill="#A3143D"/>
<path d="M133.941 37.2422H158.79V41.1085H133.941V37.2422Z" fill="#A3143D"/>
<path d="M131.355 7.21402H171.86V65.1853H176.001V3.35156H131.359L131.355 7.21402Z" fill="#A3143D"/>
<path d="M131.086 123.753C130.836 123.85 130.603 123.988 130.402 124.159C130.011 124.522 129.79 125.015 129.79 125.532C129.79 126.047 130.011 126.541 130.402 126.903C130.603 127.075 130.836 127.212 131.086 127.311C131.587 127.517 132.159 127.517 132.66 127.311C132.91 127.212 133.142 127.075 133.343 126.903C133.735 126.541 133.956 126.047 133.956 125.532C133.956 125.015 133.735 124.522 133.343 124.159C132.748 123.61 131.857 123.45 131.086 123.753Z" fill="#A3143D"/>
<path d="M138.083 123.641H171.215V127.507H138.083V123.641Z" fill="#A3143D"/>
<path d="M133.343 133.847C132.748 133.298 131.857 133.137 131.086 133.441C130.836 133.538 130.603 133.675 130.402 133.847C130.024 134.216 129.81 134.707 129.802 135.22C129.791 135.348 129.791 135.477 129.802 135.605C129.825 135.727 129.867 135.844 129.926 135.953C129.972 136.077 130.034 136.193 130.112 136.301L130.361 136.591C130.563 136.762 130.794 136.9 131.045 136.998C131.302 137.112 131.587 137.166 131.873 137.152C132.422 137.145 132.946 136.944 133.343 136.591L133.592 136.301C133.67 136.193 133.733 136.077 133.778 135.953C133.852 135.847 133.908 135.729 133.944 135.605C133.954 135.477 133.954 135.348 133.944 135.22C133.94 134.966 133.883 134.716 133.778 134.485C133.672 134.25 133.525 134.034 133.343 133.847Z" fill="#A3143D"/>
<path d="M138.083 133.289H171.215V137.156H138.083V133.289Z" fill="#A3143D"/>
<path d="M133.343 143.503C132.748 142.954 131.857 142.793 131.086 143.097C130.831 143.189 130.599 143.326 130.402 143.503C130.22 143.69 130.073 143.906 129.968 144.141C129.862 144.373 129.806 144.622 129.802 144.876C129.791 145.004 129.791 145.133 129.802 145.261C129.825 145.383 129.867 145.5 129.926 145.609C129.972 145.733 130.034 145.849 130.112 145.957L130.36 146.247C130.558 146.424 130.791 146.561 131.045 146.654C131.307 146.758 131.588 146.811 131.873 146.808C132.422 146.808 132.949 146.604 133.337 146.242C133.726 145.879 133.944 145.388 133.944 144.876C133.94 144.622 133.883 144.373 133.778 144.141C133.68 143.903 133.531 143.686 133.343 143.503L133.343 143.503Z" fill="#A3143D"/>
<path d="M138.083 142.945H171.215V146.812H138.083V142.945Z" fill="#A3143D"/>
<path d="M52.8363 134.242C51.5768 134.241 50.3462 134.606 49.3163 135.286L37.6165 125.621H37.618C37.683 125.296 37.7176 124.966 37.7205 124.635C37.7205 122.563 36.5361 120.648 34.6151 119.613C32.6926 118.577 30.325 118.577 28.4026 119.613C26.4802 120.648 25.2971 122.563 25.2971 124.635C25.2654 124.949 25.2654 125.268 25.2971 125.582L12.8722 134.899C11.9955 134.45 11.0147 134.211 10.0152 134.203C8.36711 134.203 6.78691 134.814 5.62269 135.902C4.45707 136.988 3.80273 138.464 3.80273 140.002C3.80273 141.54 4.45704 143.014 5.62269 144.102C6.78687 145.19 8.36707 145.801 10.0152 145.801C11.6618 145.801 13.242 145.19 14.4076 144.102C15.5718 143.014 16.2261 141.54 16.2261 140.002C16.2781 139.243 16.1727 138.481 15.9156 137.76L27.4694 129.041H27.4708C28.6162 129.976 30.0909 130.485 31.6118 130.472C33.0808 130.475 34.5006 129.981 35.6086 129.08L46.976 138.436C46.8027 138.955 46.7132 139.496 46.7074 140.041C46.7074 141.578 47.3617 143.053 48.5273 144.141C49.6915 145.228 51.2717 145.839 52.9198 145.839C54.5664 145.839 56.1466 145.228 57.3123 144.141C58.4779 143.053 59.1322 141.578 59.1322 140.041C59.1322 138.502 58.4779 137.027 57.3123 135.939C56.1467 134.852 54.5665 134.242 52.9198 134.242L52.8363 134.242ZM10.1799 141.973C9.3422 141.973 8.58821 141.503 8.26755 140.78C7.94689 140.059 8.12456 139.227 8.71674 138.674C9.30896 138.121 10.1987 137.955 10.9729 138.254C11.7471 138.554 12.2512 139.259 12.2512 140.041C12.2512 141.107 11.3239 141.973 10.1799 141.973L10.1799 141.973ZM31.5081 126.509C30.6718 126.509 29.9164 126.039 29.5957 125.316C29.2751 124.595 29.4527 123.763 30.0449 123.21C30.6372 122.657 31.5269 122.491 32.3011 122.79C33.0753 123.09 33.5794 123.795 33.5794 124.577C33.6083 125.106 33.4017 125.623 33.0103 126.006C32.6188 126.39 32.0758 126.608 31.5081 126.606L31.5081 126.509ZM52.8363 141.973C52 141.973 51.2446 141.503 50.9239 140.78C50.6033 140.059 50.7809 139.227 51.3731 138.674C51.9653 138.121 52.8551 137.955 53.6293 138.254C54.4035 138.554 54.9076 139.259 54.9076 140.041C54.9076 140.553 54.6895 141.044 54.3009 141.407C53.9124 141.77 53.3866 141.973 52.8363 141.973Z" fill="#A3143D"/>
<path d="M129.801 117.856H173.285V86.9297H129.801V117.856ZM133.942 90.7956H169.145V113.991H133.943L133.942 90.7956Z" fill="#A3143D"/>
</svg>
